<svg width="67" height="67" viewBox="0 0 67 67" fill="none" xmlns="http://www.w3.org/2000/svg">
<path d="M33.4243 40.2637C42.5285 40.2637 49.9091 32.8832 49.9091 23.7789C49.9091 14.6746 42.5285 7.29407 33.4243 7.29407C24.3199 7.29407 16.9395 14.6746 16.9395 23.7789C16.9395 32.8832 24.3199 40.2637 33.4243 40.2637Z" stroke="white" stroke-width="1.28453" stroke-linecap="round" stroke-linejoin="round"/>
<path d="M44.414 59.496C53.5183 59.496 60.8988 52.1155 60.8988 43.0112C60.8988 33.9069 53.5183 26.5264 44.414 26.5264C35.3097 26.5264 27.9292 33.9069 27.9292 43.0112C27.9292 52.1155 35.3097 59.496 44.414 59.496Z" stroke="white" stroke-width="1.28453" stroke-linecap="round" stroke-linejoin="round"/>
<path d="M22.4345 59.496C31.5388 59.496 38.9193 52.1155 38.9193 43.0112C38.9193 33.9069 31.5388 26.5264 22.4345 26.5264C13.3302 26.5264 5.94971 33.9069 5.94971 43.0112C5.94971 52.1155 13.3302 59.496 22.4345 59.496Z" stroke="white" stroke-width="1.28453" stroke-linecap="round" stroke-linejoin="round"/>
</svg>
