<svg width="74" height="46" viewBox="0 0 74 46" fill="none" xmlns="http://www.w3.org/2000/svg">
<g filter="url(#filter0_d_409_385)">
<path d="M27.9311 0.624655V24.8166H32.534V31.1323H27.9311V39H20.2239V31.1323H3.49827V24.5223C4.97905 22.8631 6.51335 21.0523 8.10117 19.0898C9.68899 17.1095 11.2233 15.0756 12.7041 12.9883C14.1848 10.9009 15.5586 8.80462 16.8253 6.69941C18.1098 4.57637 19.1981 2.55145 20.0901 0.624655H27.9311ZM11.0716 24.8166H20.2239V11.4094C19.5995 12.569 18.9216 13.7465 18.1901 14.9418C17.4586 16.1193 16.6915 17.2879 15.8886 18.4475C15.0858 19.5893 14.2741 20.7044 13.4534 21.7926C12.6327 22.8631 11.8388 23.8711 11.0716 24.8166ZM70.2671 39H59.3486L48.1625 22.3279C47.9484 22.0067 47.6094 21.302 47.1455 20.2137H47.0117V39H38.3679V0.624655H47.0117V18.7686H47.1455C47.3596 18.2691 47.7164 17.5555 48.216 16.6278L58.8134 0.624655H69.1164L55.7358 18.9292L70.2671 39Z" fill="white"/>
</g>
<defs>
<filter id="filter0_d_409_385" x="0.0728767" y="0.624634" width="73.6196" height="45.2262" filterUnits="userSpaceOnUse" color-interpolation-filters="sRGB">
<feFlood flood-opacity="0" result="BackgroundImageFix"/>
<feColorMatrix in="SourceAlpha" type="matrix" values="0 0 0 0 0 0 0 0 0 0 0 0 0 0 0 0 0 0 127 0" result="hardAlpha"/>
<feOffset dy="3.42541"/>
<feGaussianBlur stdDeviation="1.71271"/>
<feComposite in2="hardAlpha" operator="out"/>
<feColorMatrix type="matrix" values="0 0 0 0 0 0 0 0 0 0 0 0 0 0 0 0 0 0 0.25 0"/>
<feBlend mode="normal" in2="BackgroundImageFix" result="effect1_dropShadow_409_385"/>
<feBlend mode="normal" in="SourceGraphic" in2="effect1_dropShadow_409_385" result="shape"/>
</filter>
</defs>
</svg>
