<svg width="67" height="67" viewBox="0 0 67 67" fill="none" xmlns="http://www.w3.org/2000/svg">
<g clip-path="url(#clip0_409_400)">
<path d="M45.9491 27.1161C48.6654 31.0527 50.2598 35.8227 50.2598 40.9666C50.2598 54.4497 39.3289 65.3739 25.8524 65.3739C12.3759 65.3739 1.43848 54.4497 1.43848 40.9731C1.43848 27.4966 12.3693 16.5658 25.8458 16.5658C30.9045 16.5658 35.5957 18.1011 39.493 20.7321" stroke="white" stroke-width="1.71271" stroke-miterlimit="10" stroke-linecap="round"/>
<path d="M20.2036 13.0293C24.5011 6.05482 32.2105 1.40955 41.0024 1.40955C54.4789 1.40955 65.4097 12.3404 65.4097 25.8169C65.4097 34.8581 60.4889 42.7577 53.1864 46.9765" stroke="white" stroke-width="1.71271" stroke-miterlimit="10" stroke-linecap="round"/>
<path d="M23.7598 43.7419L52.6024 14.8927" stroke="white" stroke-width="1.71271" stroke-miterlimit="10" stroke-linecap="round"/>
<path d="M41.0024 14.7942H52.4975V26.2893" stroke="white" stroke-width="1.71271" stroke-miterlimit="10" stroke-linecap="round"/>
</g>
<defs>
<clipPath id="clip0_409_400">
<rect width="65.9392" height="65.9392" fill="white" transform="translate(0.45459 0.425415)"/>
</clipPath>
</defs>
</svg>
