<svg width="64" height="64" viewBox="0 0 64 64" fill="none" xmlns="http://www.w3.org/2000/svg">
<mask id="path-1-inside-1_409_389" fill="white">
<path d="M61.7109 26.769C62.5214 26.769 63.1784 26.112 63.1784 25.3015C63.1784 24.491 62.5214 23.834 61.7109 23.834H54.498V19.9627H61.7109C62.5214 19.9627 63.1784 19.3058 63.1784 18.4953C63.1784 17.6848 62.5214 17.0278 61.7109 17.0278H54.498V10.9986C54.498 10.1881 53.8411 9.53115 53.0306 9.53115H47.0014V2.31829C47.0014 1.50781 46.3444 0.85083 45.5339 0.85083C44.7234 0.85083 44.0665 1.50781 44.0665 2.31829V9.53115H40.195V2.31829C40.195 1.50781 39.538 0.85083 38.7275 0.85083C37.9171 0.85083 37.2601 1.50781 37.2601 2.31829V9.53115H33.3889V2.31829C33.3889 1.50781 32.7319 0.85083 31.9215 0.85083C31.111 0.85083 30.454 1.50781 30.454 2.31829V9.53115H26.5827V2.31829C26.5827 1.50781 25.9257 0.85083 25.1152 0.85083C24.3048 0.85083 23.6478 1.50781 23.6478 2.31829V9.53115H19.7765V2.31829C19.7765 1.50781 19.1195 0.85083 18.309 0.85083C17.4985 0.85083 16.8415 1.50781 16.8415 2.31829V9.53115H10.8123C10.0019 9.53115 9.34487 10.1881 9.34487 10.9986V17.0278H2.13201C1.32153 17.0278 0.664551 17.6848 0.664551 18.4953C0.664551 19.3058 1.32153 19.9627 2.13201 19.9627H9.34487V23.834H2.13201C1.32153 23.834 0.664551 24.491 0.664551 25.3015C0.664551 26.112 1.32153 26.769 2.13201 26.769H9.34487V30.6403H2.13201C1.32153 30.6403 0.664551 31.2973 0.664551 32.1077C0.664551 32.9182 1.32153 33.5752 2.13201 33.5752H9.34487V37.4465H2.13201C1.32153 37.4465 0.664551 38.1035 0.664551 38.914C0.664551 39.7244 1.32153 40.3814 2.13201 40.3814H9.34487V44.2527H2.13201C1.32153 44.2527 0.664551 44.9097 0.664551 45.7202C0.664551 46.5307 1.32153 47.1877 2.13201 47.1877H9.34487V53.2169C9.34487 54.0273 10.0019 54.6843 10.8123 54.6843H16.8415V61.8972C16.8415 62.7077 17.4985 63.3646 18.309 63.3646C19.1195 63.3646 19.7765 62.7077 19.7765 61.8972V54.6843H23.6478V61.8972C23.6478 62.7077 24.3048 63.3646 25.1152 63.3646C25.9257 63.3646 26.5827 62.7077 26.5827 61.8972V54.6843H30.454V61.8972C30.454 62.7077 31.111 63.3646 31.9215 63.3646C32.7319 63.3646 33.3889 62.7077 33.3889 61.8972V54.6843H37.2601V61.8972C37.2601 62.7077 37.9171 63.3646 38.7275 63.3646C39.538 63.3646 40.195 62.7077 40.195 61.8972V54.6843H44.0663V61.8972C44.0663 62.7077 44.7233 63.3646 45.5338 63.3646C46.3442 63.3646 47.0012 62.7077 47.0012 61.8972V54.6843H53.0304C53.8409 54.6843 54.4979 54.0273 54.4979 53.2169V47.1877H61.7109C62.5214 47.1877 63.1784 46.5307 63.1784 45.7202C63.1784 44.9097 62.5214 44.2527 61.7109 44.2527H54.498V40.3814H61.7109C62.5214 40.3814 63.1784 39.7244 63.1784 38.914C63.1784 38.1035 62.5214 37.4465 61.7109 37.4465H54.498V33.5752H61.7109C62.5214 33.5752 63.1784 32.9182 63.1784 32.1077C63.1784 31.2973 62.5214 30.6403 61.7109 30.6403H54.498V26.769H61.7109ZM51.5631 30.6403H50.2687C49.4582 30.6403 48.8012 31.2973 48.8012 32.1077C48.8012 32.9182 49.4582 33.5752 50.2687 33.5752H51.5631V37.4465H50.2687C49.4582 37.4465 48.8012 38.1035 48.8012 38.914C48.8012 39.7244 49.4582 40.3814 50.2687 40.3814H51.5631V44.2527H50.2687C49.4582 44.2527 48.8012 44.9097 48.8012 45.7202C48.8012 46.5307 49.4582 47.1877 50.2687 47.1877H51.5631V51.7494H47.0014V50.455C47.0014 49.6445 46.3444 48.9875 45.5339 48.9875C44.7234 48.9875 44.0665 49.6445 44.0665 50.455V51.7494H40.195V50.455C40.195 49.6445 39.538 48.9875 38.7275 48.9875C37.9171 48.9875 37.2601 49.6445 37.2601 50.455V51.7494H33.3889V50.455C33.3889 49.6445 32.7319 48.9875 31.9215 48.9875C31.111 48.9875 30.454 49.6445 30.454 50.455V51.7494H26.5827V50.455C26.5827 49.6445 25.9257 48.9875 25.1152 48.9875C24.3048 48.9875 23.6478 49.6445 23.6478 50.455V51.7494H19.7765V50.455C19.7765 49.6445 19.1195 48.9875 18.309 48.9875C17.4985 48.9875 16.8415 49.6445 16.8415 50.455V51.7494H12.2798V47.1877H13.5742C14.3847 47.1877 15.0417 46.5307 15.0417 45.7202C15.0417 44.9097 14.3847 44.2527 13.5742 44.2527H12.2798V40.3814H13.5742C14.3847 40.3814 15.0417 39.7244 15.0417 38.914C15.0417 38.1035 14.3847 37.4465 13.5742 37.4465H12.2798V33.5752H13.5742C14.3847 33.5752 15.0417 32.9182 15.0417 32.1077C15.0417 31.2973 14.3847 30.6403 13.5742 30.6403H12.2798V26.769H13.5742C14.3847 26.769 15.0417 26.112 15.0417 25.3015C15.0417 24.491 14.3847 23.834 13.5742 23.834H12.2798V19.9627H13.5742C14.3847 19.9627 15.0417 19.3058 15.0417 18.4953C15.0417 17.6848 14.3847 17.0278 13.5742 17.0278H12.2798V12.4661H16.8415V13.7605C16.8415 14.571 17.4985 15.228 18.309 15.228C19.1195 15.228 19.7765 14.571 19.7765 13.7605V12.4661H23.6478V13.7605C23.6478 14.571 24.3048 15.228 25.1152 15.228C25.9257 15.228 26.5827 14.571 26.5827 13.7605V12.4661H30.454V13.7605C30.454 14.571 31.111 15.228 31.9215 15.228C32.7319 15.228 33.3889 14.571 33.3889 13.7605V12.4661H37.2601V13.7605C37.2601 14.571 37.9171 15.228 38.7275 15.228C39.538 15.228 40.195 14.571 40.195 13.7605V12.4661H44.0663V13.7605C44.0663 14.571 44.7233 15.228 45.5338 15.228C46.3442 15.228 47.0012 14.571 47.0012 13.7605V12.4661H51.563V17.0278H50.2685C49.458 17.0278 48.8011 17.6848 48.8011 18.4953C48.8011 19.3058 49.458 19.9627 50.2685 19.9627H51.563V23.834H50.2685C49.458 23.834 48.8011 24.491 48.8011 25.3015C48.8011 26.112 49.458 26.769 50.2685 26.769H51.563V30.6403H51.5631Z"/>
</mask>
<path d="M61.7109 26.769C62.5214 26.769 63.1784 26.112 63.1784 25.3015C63.1784 24.491 62.5214 23.834 61.7109 23.834H54.498V19.9627H61.7109C62.5214 19.9627 63.1784 19.3058 63.1784 18.4953C63.1784 17.6848 62.5214 17.0278 61.7109 17.0278H54.498V10.9986C54.498 10.1881 53.8411 9.53115 53.0306 9.53115H47.0014V2.31829C47.0014 1.50781 46.3444 0.85083 45.5339 0.85083C44.7234 0.85083 44.0665 1.50781 44.0665 2.31829V9.53115H40.195V2.31829C40.195 1.50781 39.538 0.85083 38.7275 0.85083C37.9171 0.85083 37.2601 1.50781 37.2601 2.31829V9.53115H33.3889V2.31829C33.3889 1.50781 32.7319 0.85083 31.9215 0.85083C31.111 0.85083 30.454 1.50781 30.454 2.31829V9.53115H26.5827V2.31829C26.5827 1.50781 25.9257 0.85083 25.1152 0.85083C24.3048 0.85083 23.6478 1.50781 23.6478 2.31829V9.53115H19.7765V2.31829C19.7765 1.50781 19.1195 0.85083 18.309 0.85083C17.4985 0.85083 16.8415 1.50781 16.8415 2.31829V9.53115H10.8123C10.0019 9.53115 9.34487 10.1881 9.34487 10.9986V17.0278H2.13201C1.32153 17.0278 0.664551 17.6848 0.664551 18.4953C0.664551 19.3058 1.32153 19.9627 2.13201 19.9627H9.34487V23.834H2.13201C1.32153 23.834 0.664551 24.491 0.664551 25.3015C0.664551 26.112 1.32153 26.769 2.13201 26.769H9.34487V30.6403H2.13201C1.32153 30.6403 0.664551 31.2973 0.664551 32.1077C0.664551 32.9182 1.32153 33.5752 2.13201 33.5752H9.34487V37.4465H2.13201C1.32153 37.4465 0.664551 38.1035 0.664551 38.914C0.664551 39.7244 1.32153 40.3814 2.13201 40.3814H9.34487V44.2527H2.13201C1.32153 44.2527 0.664551 44.9097 0.664551 45.7202C0.664551 46.5307 1.32153 47.1877 2.13201 47.1877H9.34487V53.2169C9.34487 54.0273 10.0019 54.6843 10.8123 54.6843H16.8415V61.8972C16.8415 62.7077 17.4985 63.3646 18.309 63.3646C19.1195 63.3646 19.7765 62.7077 19.7765 61.8972V54.6843H23.6478V61.8972C23.6478 62.7077 24.3048 63.3646 25.1152 63.3646C25.9257 63.3646 26.5827 62.7077 26.5827 61.8972V54.6843H30.454V61.8972C30.454 62.7077 31.111 63.3646 31.9215 63.3646C32.7319 63.3646 33.3889 62.7077 33.3889 61.8972V54.6843H37.2601V61.8972C37.2601 62.7077 37.9171 63.3646 38.7275 63.3646C39.538 63.3646 40.195 62.7077 40.195 61.8972V54.6843H44.0663V61.8972C44.0663 62.7077 44.7233 63.3646 45.5338 63.3646C46.3442 63.3646 47.0012 62.7077 47.0012 61.8972V54.6843H53.0304C53.8409 54.6843 54.4979 54.0273 54.4979 53.2169V47.1877H61.7109C62.5214 47.1877 63.1784 46.5307 63.1784 45.7202C63.1784 44.9097 62.5214 44.2527 61.7109 44.2527H54.498V40.3814H61.7109C62.5214 40.3814 63.1784 39.7244 63.1784 38.914C63.1784 38.1035 62.5214 37.4465 61.7109 37.4465H54.498V33.5752H61.7109C62.5214 33.5752 63.1784 32.9182 63.1784 32.1077C63.1784 31.2973 62.5214 30.6403 61.7109 30.6403H54.498V26.769H61.7109ZM51.5631 30.6403H50.2687C49.4582 30.6403 48.8012 31.2973 48.8012 32.1077C48.8012 32.9182 49.4582 33.5752 50.2687 33.5752H51.5631V37.4465H50.2687C49.4582 37.4465 48.8012 38.1035 48.8012 38.914C48.8012 39.7244 49.4582 40.3814 50.2687 40.3814H51.5631V44.2527H50.2687C49.4582 44.2527 48.8012 44.9097 48.8012 45.7202C48.8012 46.5307 49.4582 47.1877 50.2687 47.1877H51.5631V51.7494H47.0014V50.455C47.0014 49.6445 46.3444 48.9875 45.5339 48.9875C44.7234 48.9875 44.0665 49.6445 44.0665 50.455V51.7494H40.195V50.455C40.195 49.6445 39.538 48.9875 38.7275 48.9875C37.9171 48.9875 37.2601 49.6445 37.2601 50.455V51.7494H33.3889V50.455C33.3889 49.6445 32.7319 48.9875 31.9215 48.9875C31.111 48.9875 30.454 49.6445 30.454 50.455V51.7494H26.5827V50.455C26.5827 49.6445 25.9257 48.9875 25.1152 48.9875C24.3048 48.9875 23.6478 49.6445 23.6478 50.455V51.7494H19.7765V50.455C19.7765 49.6445 19.1195 48.9875 18.309 48.9875C17.4985 48.9875 16.8415 49.6445 16.8415 50.455V51.7494H12.2798V47.1877H13.5742C14.3847 47.1877 15.0417 46.5307 15.0417 45.7202C15.0417 44.9097 14.3847 44.2527 13.5742 44.2527H12.2798V40.3814H13.5742C14.3847 40.3814 15.0417 39.7244 15.0417 38.914C15.0417 38.1035 14.3847 37.4465 13.5742 37.4465H12.2798V33.5752H13.5742C14.3847 33.5752 15.0417 32.9182 15.0417 32.1077C15.0417 31.2973 14.3847 30.6403 13.5742 30.6403H12.2798V26.769H13.5742C14.3847 26.769 15.0417 26.112 15.0417 25.3015C15.0417 24.491 14.3847 23.834 13.5742 23.834H12.2798V19.9627H13.5742C14.3847 19.9627 15.0417 19.3058 15.0417 18.4953C15.0417 17.6848 14.3847 17.0278 13.5742 17.0278H12.2798V12.4661H16.8415V13.7605C16.8415 14.571 17.4985 15.228 18.309 15.228C19.1195 15.228 19.7765 14.571 19.7765 13.7605V12.4661H23.6478V13.7605C23.6478 14.571 24.3048 15.228 25.1152 15.228C25.9257 15.228 26.5827 14.571 26.5827 13.7605V12.4661H30.454V13.7605C30.454 14.571 31.111 15.228 31.9215 15.228C32.7319 15.228 33.3889 14.571 33.3889 13.7605V12.4661H37.2601V13.7605C37.2601 14.571 37.9171 15.228 38.7275 15.228C39.538 15.228 40.195 14.571 40.195 13.7605V12.4661H44.0663V13.7605C44.0663 14.571 44.7233 15.228 45.5338 15.228C46.3442 15.228 47.0012 14.571 47.0012 13.7605V12.4661H51.563V17.0278H50.2685C49.458 17.0278 48.8011 17.6848 48.8011 18.4953C48.8011 19.3058 49.458 19.9627 50.2685 19.9627H51.563V23.834H50.2685C49.458 23.834 48.8011 24.491 48.8011 25.3015C48.8011 26.112 49.458 26.769 50.2685 26.769H51.563V30.6403H51.5631Z" fill="white" stroke="black" stroke-width="0.856354" mask="url(#path-1-inside-1_409_389)"/>
<path d="M38.3451 38.7456H38.5592V38.5316V25.6839V25.4699H38.3451H25.4977H25.2836V25.6839V38.5316V38.7456H25.4977H38.3451ZM24.0302 22.9631H39.8126C40.5048 22.9631 41.066 23.5242 41.066 24.2165V39.999C41.066 40.6913 40.5048 41.2524 39.8126 41.2524H24.0302C23.338 41.2524 22.7768 40.6913 22.7768 39.999V24.2165C22.7768 23.5242 23.338 22.9631 24.0302 22.9631Z" fill="white" stroke="black" stroke-width="0.428177"/>
</svg>
