<?xml version="1.0" encoding="utf-8"?>
<!-- Generator: Adobe Illustrator 25.4.1, SVG Export Plug-In . SVG Version: 6.00 Build 0)  -->
<svg version="1.1" id="Capa_1" xmlns="http://www.w3.org/2000/svg" xmlns:xlink="http://www.w3.org/1999/xlink" x="0px" y="0px"
	 viewBox="0 0 51 50" style="enable-background:new 0 0 51 50;" xml:space="preserve">
<style type="text/css">
	.st0{fill:#FFFFFF;}
</style>
<path class="st0" d="M15.3,0.4c-8,0-14.5,6.5-14.5,14.5v20.3c0,8,6.5,14.5,14.5,14.5h20.3c8,0,14.5-6.5,14.5-14.5V14.8
	c0-8-6.5-14.5-14.5-14.5H15.3z M15.3,4.8h20.3c5.5,0,10,4.5,10,10v20.3c0,5.5-4.5,10-10,10H15.3c-5.5,0-10-4.5-10-10V14.8
	C5.3,9.3,9.8,4.8,15.3,4.8z M38.7,9.7c-1.1,0-2,0.9-2,2s0.9,2,2,2s2-0.9,2-2S39.9,9.7,38.7,9.7z M25.5,11.6c-7.4,0-13.4,6-13.4,13.4
	s6,13.4,13.4,13.4s13.4-6,13.4-13.4S32.9,11.6,25.5,11.6z M25.5,16c5,0,9,4,9,9s-4,9-9,9s-9-4-9-9S20.5,16,25.5,16z"/>
</svg>
