<svg width="50" height="50" viewBox="0 0 50 50" fill="none" xmlns="http://www.w3.org/2000/svg">
<path d="M48 8.90002V40.9H2V8.90002H48M48 6.90002H2C0.9 6.90002 0 7.80002 0 8.90002V40.9C0 42 0.9 42.9 2 42.9H48C49.1 42.9 50 42 50 40.9V8.90002C50 7.80002 49.1 6.90002 48 6.90002Z" fill="white"/>
<path d="M24.9998 27.6L0.799805 12.9C0.299805 12.6 0.199805 12 0.499805 11.5C0.799805 11 1.3998 10.9 1.8998 11.2L24.9998 25.3L47.9998 11.2C48.4998 10.9 49.0998 11.1 49.3998 11.5C49.6998 12 49.4998 12.6 49.0998 12.9L24.9998 27.6Z" fill="white"/>
</svg>
