<svg width="50" height="50" viewBox="0 0 50 50" fill="none" xmlns="http://www.w3.org/2000/svg">
<g clip-path="url(#clip0_595_1238)">
<path d="M8.89993 2.19998H8.99993C9.29993 2.19998 9.59993 2.29998 9.89993 2.49998C10.1999 2.59998 10.3999 2.89998 10.5999 3.09998L16.4999 10.7C16.6999 11 16.8999 11.3 16.8999 11.6C16.9999 11.9 16.9999 12.3 16.8999 12.6L15.0999 19.8C14.8999 20.8 14.8999 21.8 15.0999 22.7C15.3999 23.7 15.8999 24.5 16.5999 25.2L24.6999 33.3C25.3999 34 26.2999 34.5 27.1999 34.8C27.6999 34.9 28.1999 35 28.6999 35C29.1999 35 29.5999 34.9 30.0999 34.8L37.2999 33C37.4999 33 37.6999 32.9 37.7999 32.9C37.9999 32.9 38.0999 32.9 38.2999 32.9C38.5999 33 38.8999 33.1 39.1999 33.3L46.7999 39.2C46.9999 39.4 47.2999 39.6 47.3999 39.9C47.4999 40.2 47.5999 40.5 47.6999 40.8C47.6999 41.1 47.6999 41.4 47.5999 41.7C47.4999 42 47.2999 42.3 47.0999 42.5L43.6999 45.9C42.5999 47 41.0999 47.7 39.5999 47.7C38.9999 47.7 38.3999 47.6 37.8999 47.4C29.6999 44.5 22.2999 39.8 16.0999 33.7C9.99993 27.7 5.29993 20.3 2.49993 12.1C1.79993 10.1 2.39993 7.89998 3.99993 6.29998L7.39993 2.89998C7.59993 2.69998 7.89993 2.49998 8.19993 2.39998C8.39993 2.19998 8.69993 2.19998 8.89993 2.19998ZM8.89993 0.199976C8.39993 0.199976 7.89993 0.299976 7.39993 0.499976C6.89993 0.699976 6.39993 0.999976 5.89993 1.39998L2.49993 4.79998C0.399931 6.99998 -0.400069 9.99998 0.599931 12.7C3.59993 21.1 8.49993 28.9 14.7999 35.2C21.0999 41.5 28.8999 46.4 37.2999 49.4C38.0999 49.7 38.8999 49.8 39.6999 49.8C41.6999 49.8 43.6999 48.9 45.1999 47.4L48.5999 44C48.9999 43.6 49.3999 43.1 49.5999 42.5C49.7999 41.9 49.8999 41.3 49.8999 40.7C49.8999 40.1 49.6999 39.5 49.3999 39C49.0999 38.5 48.6999 38 48.2999 37.6L40.6999 31.7C40.1999 31.3 39.5999 31 38.9999 30.9C38.6999 30.8 38.3999 30.8 38.0999 30.8C37.7999 30.8 37.3999 30.8 37.0999 30.9L29.8999 32.7C29.5999 32.8 29.2999 32.8 28.9999 32.8C28.6999 32.8 28.2999 32.8 27.9999 32.7C27.3999 32.5 26.7999 32.2 26.3999 31.7L18.2999 23.6C17.7999 23.1 17.4999 22.6 17.2999 22C17.0999 21.4 17.0999 20.7 17.2999 20.1L19.0999 12.9C19.2999 12.3 19.2999 11.6 19.0999 11C18.9999 10.4 18.6999 9.79998 18.2999 9.29998L12.3999 1.69998C11.9999 1.19998 11.5999 0.799976 10.9999 0.599976C10.4999 0.299976 9.89993 0.199976 9.29993 0.0999756C9.09993 0.199976 8.99993 0.199976 8.89993 0.199976Z" fill="white"/>
</g>
<defs>
<clipPath id="clip0_595_1238">
<rect width="50" height="50" fill="white"/>
</clipPath>
</defs>
</svg>
