<svg width="50" height="50" viewBox="0 0 50 50" fill="none" xmlns="http://www.w3.org/2000/svg">
<g clip-path="url(#clip0_581_1017)">
<path d="M0 20.8077C0 32.284 9.33661 41.6104 20.8026 41.6104C26.0852 41.6104 30.9173 39.6243 34.5925 36.3688L47.8501 49.6263C48.0958 49.872 48.4132 49.9949 48.7408 49.9949C49.0684 49.9949 49.3857 49.872 49.6314 49.6263C50.1229 49.1349 50.1229 48.3467 49.6314 47.8553L36.3636 34.5977C39.6192 30.9224 41.6052 26.1005 41.6052 20.8077C41.6052 9.3315 32.2686 0.00512695 20.8026 0.00512695C9.33661 0.00512695 0 9.3315 0 20.8077ZM39.0971 20.8077C39.0971 30.8917 30.8866 39.1022 20.8026 39.1022C10.7187 39.1022 2.50819 30.8917 2.50819 20.8077C2.50819 10.7238 10.7187 2.51332 20.8026 2.51332C30.8866 2.51332 39.0971 10.7136 39.0971 20.8077Z" fill="white"/>
</g>
<defs>
<clipPath id="clip0_581_1017">
<rect width="50" height="50" fill="white"/>
</clipPath>
</defs>
</svg>
